{
	"asset":{
		"generator":"Khronos glTF Blender I/O v4.0.44",
		"version":"2.0"
	},
	"extensionsUsed":[
		"KHR_materials_transmission",
		"KHR_materials_specular",
		"KHR_materials_ior",
		"KHR_materials_sheen"
	],
	"scene":0,
	"scenes":[
		{
			"name":"Scene",
			"nodes":[
				0,
				1,
				2,
				9,
				10,
				11,
				12,
				20,
				21,
				23
			]
		}
	],
	"nodes":[
		{
			"name":"Plane.009_SurfaceDrawing"
		},
		{
			"name":"Plane.005_SurfaceDrawing"
		},
		{
			"name":"Plane.001_SurfaceDrawing"
		},
		{
			"mesh":0,
			"name":"Cylinder"
		},
		{
			"mesh":1,
			"name":"Cylinder.001"
		},
		{
			"mesh":2,
			"name":"Plane.003"
		},
		{
			"mesh":3,
			"name":"Plane.010"
		},
		{
			"mesh":4,
			"name":"Plane.016"
		},
		{
			"mesh":5,
			"name":"Plane.017"
		},
		{
			"children":[
				3,
				4,
				5,
				6,
				7,
				8
			],
			"name":"Adidas running shoes"
		},
		{
			"name":"Plane.009_SurfaceDrawing.001"
		},
		{
			"name":"Plane.005_SurfaceDrawing.001"
		},
		{
			"name":"Plane.001_SurfaceDrawing.001"
		},
		{
			"mesh":1,
			"name":"Cylinder.002"
		},
		{
			"mesh":0,
			"name":"Cylinder.003"
		},
		{
			"mesh":5,
			"name":"Plane.011"
		},
		{
			"mesh":4,
			"name":"Plane.014"
		},
		{
			"mesh":6,
			"name":"Plane.018"
		},
		{
			"mesh":3,
			"name":"Plane.019"
		},
		{
			"mesh":7,
			"name":"Plane.029"
		},
		{
			"children":[
				13,
				14,
				15,
				16,
				17,
				18,
				19
			],
			"name":"Adidas running shoes.001"
		},
		{
			"name":"Mustang ladies shoes sneakers"
		},
		{
			"mesh":8,
			"name":"Retopo_3DModel_mesh.001"
		},
		{
			"children":[
				22
			],
			"name":"Shoes",
			"scale":[
				30,
				30,
				30
			]
		}
	],
	"materials":[
		{
			"doubleSided":true,
			"name":"Material.015",
			"pbrMetallicRoughness":{
				"baseColorFactor":[
					0,
					0,
					0,
					1
				],
				"metallicFactor":0,
				"roughnessFactor":0.09545454382896423
			}
		},
		{
			"doubleSided":true,
			"name":"Material.014",
			"pbrMetallicRoughness":{
				"baseColorFactor":[
					0,
					0,
					0,
					1
				],
				"metallicFactor":0,
				"roughnessFactor":0.04545453190803528
			}
		},
		{
			"doubleSided":true,
			"name":"Material.012",
			"pbrMetallicRoughness":{
				"baseColorFactor":[
					0,
					0,
					0,
					1
				],
				"metallicFactor":0,
				"roughnessFactor":0.5
			}
		},
		{
			"doubleSided":true,
			"name":"Material.016",
			"pbrMetallicRoughness":{
				"baseColorFactor":[
					0,
					0,
					0,
					1
				],
				"metallicFactor":0.26818180084228516,
				"roughnessFactor":0.663636326789856
			}
		},
		{
			"doubleSided":true,
			"extensions":{
				"KHR_materials_transmission":{
					"transmissionFactor":0.550000011920929
				},
				"KHR_materials_specular":{
					"specularColorFactor":[
						1.0496019124984741,
						1.0496019124984741,
						1.0496019124984741
					]
				},
				"KHR_materials_ior":{
					"ior":1.4500000476837158
				}
			},
			"name":"Material.005",
			"pbrMetallicRoughness":{
				"baseColorFactor":[
					0.2851789891719818,
					1,
					0.08224699646234512,
					1
				],
				"metallicFactor":0.6863636374473572,
				"roughnessFactor":0.37272727489471436
			}
		},
		{
			"doubleSided":true,
			"extensions":{
				"KHR_materials_specular":{
					"specularColorFactor":[
						1.1425632238388062,
						1.1425632238388062,
						1.1425632238388062
					]
				},
				"KHR_materials_ior":{
					"ior":1.4500000476837158
				}
			},
			"name":"Material.004",
			"pbrMetallicRoughness":{
				"metallicFactor":0,
				"roughnessFactor":0.4318181872367859
			}
		},
		{
			"doubleSided":true,
			"extensions":{
				"KHR_materials_sheen":{
					"sheenColorFactor":[
						0.07820676267147064,
						0.07820676267147064,
						0.07820676267147064
					],
					"sheenRoughnessFactor":1
				}
			},
			"name":"Material.013",
			"pbrMetallicRoughness":{}
		},
		{
			"doubleSided":true,
			"extensions":{
				"KHR_materials_specular":{
					"specularColorFactor":[
						0.0,
						0.0,
						0.0
					]
				},
				"KHR_materials_ior":{
					"ior":1.4500000476837158
				}
			},
			"name":"3DModel_Custom.014",
			"normalTexture":{
				"index":0
			},
			"pbrMetallicRoughness":{
				"baseColorTexture":{
					"index":1
				},
				"metallicFactor":0,
				"metallicRoughnessTexture":{
					"index":2
				}
			}
		}
	],
	"meshes":[
		{
			"name":"Cylinder.011",
			"primitives":[
				{
					"attributes":{
						"POSITION":0,
						"NORMAL":1,
						"TEXCOORD_0":2
					},
					"indices":3,
					"material":0
				}
			]
		},
		{
			"name":"Cylinder.012",
			"primitives":[
				{
					"attributes":{
						"POSITION":4,
						"NORMAL":5,
						"TEXCOORD_0":6
					},
					"indices":7,
					"material":1
				}
			]
		},
		{
			"name":"Plane.003",
			"primitives":[
				{
					"attributes":{
						"POSITION":8,
						"NORMAL":9,
						"TEXCOORD_0":10
					},
					"indices":11,
					"material":2
				},
				{
					"attributes":{
						"POSITION":12,
						"NORMAL":13,
						"TEXCOORD_0":14
					},
					"indices":15,
					"material":3
				}
			]
		},
		{
			"name":"Plane.016",
			"primitives":[
				{
					"attributes":{
						"POSITION":16,
						"NORMAL":17,
						"TEXCOORD_0":18
					},
					"indices":19,
					"material":4
				}
			]
		},
		{
			"name":"Plane.019",
			"primitives":[
				{
					"attributes":{
						"POSITION":20,
						"NORMAL":21,
						"TEXCOORD_0":22
					},
					"indices":23,
					"material":5
				}
			]
		},
		{
			"name":"Plane.020",
			"primitives":[
				{
					"attributes":{
						"POSITION":24,
						"NORMAL":25,
						"TEXCOORD_0":26
					},
					"indices":27,
					"material":5
				}
			]
		},
		{
			"name":"Plane.011",
			"primitives":[
				{
					"attributes":{
						"POSITION":28,
						"NORMAL":29,
						"TEXCOORD_0":30
					},
					"indices":31,
					"material":6
				}
			]
		},
		{
			"name":"Plane.015",
			"primitives":[
				{
					"attributes":{
						"POSITION":32,
						"NORMAL":33,
						"TEXCOORD_0":34
					},
					"indices":35,
					"material":4
				}
			]
		},
		{
			"name":"Retopo_3DModel_mesh.014",
			"primitives":[
				{
					"attributes":{
						"POSITION":36,
						"NORMAL":37,
						"TEXCOORD_0":38
					},
					"indices":39,
					"material":7
				}
			]
		}
	],
	"textures":[
		{
			"sampler":0,
			"source":0
		},
		{
			"sampler":0,
			"source":1
		},
		{
			"sampler":0,
			"source":2
		}
	],
	"images":[
		{
			"mimeType":"image/jpeg",
			"name":"3DModel_Custom_Normal",
			"uri":"3DModel_Custom_Normal.jpg"
		},
		{
			"mimeType":"image/jpeg",
			"name":"3DModel_Custom",
			"uri":"3DModel_Custom.jpg"
		},
		{
			"mimeType":"image/png",
			"name":"3DModel_Custom_Roughness",
			"uri":"3DModel_Custom_Roughness.png"
		}
	],
	"accessors":[
		{
			"bufferView":0,
			"componentType":5126,
			"count":711,
			"max":[
				0.04572909697890282,
				0.07879167795181274,
				-0.002566184848546982
			],
			"min":[
				0.037597961723804474,
				0.07368311285972595,
				-0.008290085010230541
			],
			"type":"VEC3"
		},
		{
			"bufferView":1,
			"componentType":5126,
			"count":711,
			"type":"VEC3"
		},
		{
			"bufferView":2,
			"componentType":5126,
			"count":711,
			"type":"VEC2"
		},
		{
			"bufferView":3,
			"componentType":5123,
			"count":2004,
			"type":"SCALAR"
		},
		{
			"bufferView":4,
			"componentType":5126,
			"count":692,
			"max":[
				-0.032156456261873245,
				0.08207549154758453,
				-0.004616036079823971
			],
			"min":[
				-0.039697904139757156,
				0.07735161483287811,
				-0.009769770316779613
			],
			"type":"VEC3"
		},
		{
			"bufferView":5,
			"componentType":5126,
			"count":692,
			"type":"VEC3"
		},
		{
			"bufferView":6,
			"componentType":5126,
			"count":692,
			"type":"VEC2"
		},
		{
			"bufferView":7,
			"componentType":5123,
			"count":2004,
			"type":"SCALAR"
		},
		{
			"bufferView":8,
			"componentType":5126,
			"count":36,
			"max":[
				0.0201392974704504,
				0.10975072532892227,
				0.008789179846644402
			],
			"min":[
				-0.013978122733533382,
				0.08022437244653702,
				-0.02738798037171364
			],
			"type":"VEC3"
		},
		{
			"bufferView":9,
			"componentType":5126,
			"count":36,
			"type":"VEC3"
		},
		{
			"bufferView":10,
			"componentType":5126,
			"count":36,
			"type":"VEC2"
		},
		{
			"bufferView":11,
			"componentType":5123,
			"count":72,
			"type":"SCALAR"
		},
		{
			"bufferView":12,
			"componentType":5126,
			"count":36,
			"max":[
				0.025863852351903915,
				0.10683460533618927,
				0.05526980385184288
			],
			"min":[
				-0.021740388125181198,
				0.05286739021539688,
				-0.0314582884311676
			],
			"type":"VEC3"
		},
		{
			"bufferView":13,
			"componentType":5126,
			"count":36,
			"type":"VEC3"
		},
		{
			"bufferView":14,
			"componentType":5126,
			"count":36,
			"type":"VEC2"
		},
		{
			"bufferView":15,
			"componentType":5123,
			"count":84,
			"type":"SCALAR"
		},
		{
			"bufferView":16,
			"componentType":5126,
			"count":59,
			"max":[
				0.040431272238492966,
				0.06270749121904373,
				0.06388092786073685
			],
			"min":[
				0.03063531592488289,
				0.026729680597782135,
				-0.03129855543375015
			],
			"type":"VEC3"
		},
		{
			"bufferView":17,
			"componentType":5126,
			"count":59,
			"type":"VEC3"
		},
		{
			"bufferView":18,
			"componentType":5126,
			"count":59,
			"type":"VEC2"
		},
		{
			"bufferView":19,
			"componentType":5123,
			"count":168,
			"type":"SCALAR"
		},
		{
			"bufferView":20,
			"componentType":5126,
			"count":134,
			"max":[
				0.028120607137680054,
				0.08583878725767136,
				0.0573500357568264
			],
			"min":[
				0.021912749856710434,
				0.0521504171192646,
				-0.02141866832971573
			],
			"type":"VEC3"
		},
		{
			"bufferView":21,
			"componentType":5126,
			"count":134,
			"type":"VEC3"
		},
		{
			"bufferView":22,
			"componentType":5126,
			"count":134,
			"type":"VEC2"
		},
		{
			"bufferView":23,
			"componentType":5123,
			"count":372,
			"type":"SCALAR"
		},
		{
			"bufferView":24,
			"componentType":5126,
			"count":284,
			"max":[
				-0.014266288839280605,
				0.09103710204362869,
				0.057698071002960205
			],
			"min":[
				-0.020773205906152725,
				0.055028509348630905,
				-0.021271109580993652
			],
			"type":"VEC3"
		},
		{
			"bufferView":25,
			"componentType":5126,
			"count":284,
			"type":"VEC3"
		},
		{
			"bufferView":26,
			"componentType":5126,
			"count":284,
			"type":"VEC2"
		},
		{
			"bufferView":27,
			"componentType":5123,
			"count":420,
			"type":"SCALAR"
		},
		{
			"bufferView":28,
			"componentType":5126,
			"count":210,
			"max":[
				0.04317718744277954,
				0.0982949361205101,
				0.060040637850761414
			],
			"min":[
				-0.03633581101894379,
				0.046477146446704865,
				-0.01744123175740242
			],
			"type":"VEC3"
		},
		{
			"bufferView":29,
			"componentType":5126,
			"count":210,
			"type":"VEC3"
		},
		{
			"bufferView":30,
			"componentType":5126,
			"count":210,
			"type":"VEC2"
		},
		{
			"bufferView":31,
			"componentType":5123,
			"count":438,
			"type":"SCALAR"
		},
		{
			"bufferView":32,
			"componentType":5126,
			"count":56,
			"max":[
				-0.0243382565677166,
				0.06281382590532303,
				0.06625545024871826
			],
			"min":[
				-0.040830422192811966,
				0.02396395057439804,
				-0.03960634022951126
			],
			"type":"VEC3"
		},
		{
			"bufferView":33,
			"componentType":5126,
			"count":56,
			"type":"VEC3"
		},
		{
			"bufferView":34,
			"componentType":5126,
			"count":56,
			"type":"VEC2"
		},
		{
			"bufferView":35,
			"componentType":5123,
			"count":168,
			"type":"SCALAR"
		},
		{
			"bufferView":36,
			"componentType":5126,
			"count":39258,
			"max":[
				0.047645583748817444,
				0.13657855987548828,
				0.15078523755073547
			],
			"min":[
				-0.0541997104883194,
				0.00014918447413947433,
				-0.12488993257284164
			],
			"type":"VEC3"
		},
		{
			"bufferView":37,
			"componentType":5126,
			"count":39258,
			"type":"VEC3"
		},
		{
			"bufferView":38,
			"componentType":5126,
			"count":39258,
			"type":"VEC2"
		},
		{
			"bufferView":39,
			"componentType":5123,
			"count":209688,
			"type":"SCALAR"
		}
	],
	"bufferViews":[
		{
			"buffer":0,
			"byteLength":8532,
			"byteOffset":0,
			"target":34962
		},
		{
			"buffer":0,
			"byteLength":8532,
			"byteOffset":8532,
			"target":34962
		},
		{
			"buffer":0,
			"byteLength":5688,
			"byteOffset":17064,
			"target":34962
		},
		{
			"buffer":0,
			"byteLength":4008,
			"byteOffset":22752,
			"target":34963
		},
		{
			"buffer":0,
			"byteLength":8304,
			"byteOffset":26760,
			"target":34962
		},
		{
			"buffer":0,
			"byteLength":8304,
			"byteOffset":35064,
			"target":34962
		},
		{
			"buffer":0,
			"byteLength":5536,
			"byteOffset":43368,
			"target":34962
		},
		{
			"buffer":0,
			"byteLength":4008,
			"byteOffset":48904,
			"target":34963
		},
		{
			"buffer":0,
			"byteLength":432,
			"byteOffset":52912,
			"target":34962
		},
		{
			"buffer":0,
			"byteLength":432,
			"byteOffset":53344,
			"target":34962
		},
		{
			"buffer":0,
			"byteLength":288,
			"byteOffset":53776,
			"target":34962
		},
		{
			"buffer":0,
			"byteLength":144,
			"byteOffset":54064,
			"target":34963
		},
		{
			"buffer":0,
			"byteLength":432,
			"byteOffset":54208,
			"target":34962
		},
		{
			"buffer":0,
			"byteLength":432,
			"byteOffset":54640,
			"target":34962
		},
		{
			"buffer":0,
			"byteLength":288,
			"byteOffset":55072,
			"target":34962
		},
		{
			"buffer":0,
			"byteLength":168,
			"byteOffset":55360,
			"target":34963
		},
		{
			"buffer":0,
			"byteLength":708,
			"byteOffset":55528,
			"target":34962
		},
		{
			"buffer":0,
			"byteLength":708,
			"byteOffset":56236,
			"target":34962
		},
		{
			"buffer":0,
			"byteLength":472,
			"byteOffset":56944,
			"target":34962
		},
		{
			"buffer":0,
			"byteLength":336,
			"byteOffset":57416,
			"target":34963
		},
		{
			"buffer":0,
			"byteLength":1608,
			"byteOffset":57752,
			"target":34962
		},
		{
			"buffer":0,
			"byteLength":1608,
			"byteOffset":59360,
			"target":34962
		},
		{
			"buffer":0,
			"byteLength":1072,
			"byteOffset":60968,
			"target":34962
		},
		{
			"buffer":0,
			"byteLength":744,
			"byteOffset":62040,
			"target":34963
		},
		{
			"buffer":0,
			"byteLength":3408,
			"byteOffset":62784,
			"target":34962
		},
		{
			"buffer":0,
			"byteLength":3408,
			"byteOffset":66192,
			"target":34962
		},
		{
			"buffer":0,
			"byteLength":2272,
			"byteOffset":69600,
			"target":34962
		},
		{
			"buffer":0,
			"byteLength":840,
			"byteOffset":71872,
			"target":34963
		},
		{
			"buffer":0,
			"byteLength":2520,
			"byteOffset":72712,
			"target":34962
		},
		{
			"buffer":0,
			"byteLength":2520,
			"byteOffset":75232,
			"target":34962
		},
		{
			"buffer":0,
			"byteLength":1680,
			"byteOffset":77752,
			"target":34962
		},
		{
			"buffer":0,
			"byteLength":876,
			"byteOffset":79432,
			"target":34963
		},
		{
			"buffer":0,
			"byteLength":672,
			"byteOffset":80308,
			"target":34962
		},
		{
			"buffer":0,
			"byteLength":672,
			"byteOffset":80980,
			"target":34962
		},
		{
			"buffer":0,
			"byteLength":448,
			"byteOffset":81652,
			"target":34962
		},
		{
			"buffer":0,
			"byteLength":336,
			"byteOffset":82100,
			"target":34963
		},
		{
			"buffer":0,
			"byteLength":471096,
			"byteOffset":82436,
			"target":34962
		},
		{
			"buffer":0,
			"byteLength":471096,
			"byteOffset":553532,
			"target":34962
		},
		{
			"buffer":0,
			"byteLength":314064,
			"byteOffset":1024628,
			"target":34962
		},
		{
			"buffer":0,
			"byteLength":419376,
			"byteOffset":1338692,
			"target":34963
		}
	],
	"samplers":[
		{
			"magFilter":9729,
			"minFilter":9987
		}
	],
	"buffers":[
		{
			"byteLength":1758068,
			"uri":"1.bin"
		}
	]
}
